<svg xmlns="http://www.w3.org/2000/svg" viewBox="0 0 200 64" fill="none">
  <!-- VCL Logo: Refined Lotus with Elegant Vine -->

  <!-- Left vine -->
  <g stroke="#5A7A63" stroke-width="1.2" stroke-linecap="round" fill="none">
    <path d="M16 38 C28 36, 42 32, 58 28"/>
    <!-- Leaf stems with simple curves -->
    <path d="M28 35 C25 28, 30 23, 33 27"/>
    <path d="M33 27 C30 31, 28 35, 28 35"/>
    <path d="M40 32 C38 38, 42 43, 45 40"/>
    <path d="M45 40 C42 37, 40 32, 40 32"/>
    <path d="M52 29 C50 24, 54 20, 56 24"/>
    <path d="M56 24 C54 27, 52 29, 52 29"/>
  </g>

  <!-- Lotus Flower - elegant thin petals -->
  <g fill="none" stroke-linecap="round" stroke-linejoin="round">
    <!-- Outer left petal -->
    <path d="M66 34 C62 20, 66 8, 72 2 C75 10, 74 24, 72 34"
          stroke="#5A7A63" stroke-width="1.1" opacity="0.5"/>

    <!-- Inner left petal -->
    <path d="M76 32 C73 16, 78 4, 84 0 C87 10, 85 22, 82 32"
          stroke="#5A7A63" stroke-width="1.2" opacity="0.7"/>

    <!-- Center-left petal -->
    <path d="M86 30 C84 12, 90 0, 96 -3 C99 8, 97 20, 94 30"
          stroke="#5A7A63" stroke-width="1.3" opacity="0.85"/>

    <!-- Center petal (terracotta accent) -->
    <path d="M96 28 C95 10, 100 -2, 106 -4 C110 6, 109 18, 107 28"
          stroke="#D4956A" stroke-width="1.4"/>

    <!-- Center-right petal -->
    <path d="M108 30 C106 12, 112 0, 118 -3 C121 10, 118 22, 116 30"
          stroke="#5A7A63" stroke-width="1.3" opacity="0.85"/>

    <!-- Inner right petal -->
    <path d="M118 32 C116 16, 122 4, 128 0 C131 12, 128 24, 126 32"
          stroke="#5A7A63" stroke-width="1.2" opacity="0.7"/>

    <!-- Outer right petal -->
    <path d="M128 34 C126 20, 130 8, 136 2 C138 12, 136 26, 134 34"
          stroke="#5A7A63" stroke-width="1.1" opacity="0.5"/>

    <!-- Lotus base - gentle cup -->
    <path d="M62 38 C76 44, 92 46, 100 46 C108 46, 124 44, 138 38"
          stroke="#5A7A63" stroke-width="1.3"/>

    <!-- Inner detail - small stamen dots -->
    <circle cx="97" cy="22" r="1" fill="#D4956A" opacity="0.7"/>
    <circle cx="100" cy="18" r="1.2" fill="#D4956A" opacity="0.5"/>
    <circle cx="103" cy="22" r="1" fill="#D4956A" opacity="0.7"/>
  </g>

  <!-- Right vine -->
  <g stroke="#5A7A63" stroke-width="1.2" stroke-linecap="round" fill="none">
    <path d="M142 28 C158 32, 172 36, 186 38"/>
    <!-- Leaf stems -->
    <path d="M152 31 C154 24, 160 22, 162 26"/>
    <path d="M162 26 C159 29, 154 31, 152 31"/>
    <path d="M166 34 C168 40, 174 41, 175 38"/>
    <path d="M175 38 C172 36, 168 34, 166 34"/>
    <!-- Elegant end tendril -->
    <path d="M186 38 C190 38, 193 35, 192 31 C191 28, 188 28, 187 30"/>
  </g>
</svg>